<svg xmlns="http://www.w3.org/2000/svg" xmlns:xlink="http://www.w3.org/1999/xlink" viewBox="0 0 242.32 70.72"><defs><style>.cls-1{fill:url(#Degradado_sin_nombre_27);}.cls-2,.cls-3,.cls-4{fill:#063;}.cls-10,.cls-11,.cls-2,.cls-4,.cls-5{stroke:#fff;stroke-miterlimit:10;}.cls-2,.cls-5{stroke-width:0.25px;}.cls-10,.cls-11,.cls-4{stroke-width:0.75px;}.cls-5{font-size:13.11px;}.cls-10,.cls-11,.cls-5{fill:#ec671b;font-family:Bella;}.cls-6{letter-spacing:-0.01em;}.cls-7{letter-spacing:-0.03em;}.cls-8{letter-spacing:-0.06em;}.cls-9{letter-spacing:-0.08em;}.cls-10{font-size:38.72px;}.cls-11{font-size:24px;}</style><linearGradient id="Degradado_sin_nombre_27" x1="39.53" y1="35.03" x2="242.32" y2="35.03" gradientUnits="userSpaceOnUse"><stop offset="0" stop-color="#68b545"/><stop offset="0.02" stop-color="#64b148"/><stop offset="0.13" stop-color="#539e56"/><stop offset="0.25" stop-color="#48935e"/><stop offset="0.37" stop-color="#458f61"/><stop offset="0.85" stop-color="#27508d"/><stop offset="0.89" stop-color="#253e92"/><stop offset="1" stop-color="#203c91"/></linearGradient></defs><title>logoInfoArso</title><g id="Capa_2" data-name="Capa 2"><g id="Capa_1-2" data-name="Capa 1"><path class="cls-1" d="M242.32,67.2,221.93,67a7.55,7.55,0,0,1-1.83,1.71,8.61,8.61,0,0,1-9.08.15A7.77,7.77,0,0,1,209,66.91l-78.4,0,.12-8.34a8.67,8.67,0,0,1-5.68.57,9,9,0,0,1-4.91-3.42,12.34,12.34,0,0,1-2.25-5.35,21.52,21.52,0,0,1,1.58-12.44c.2-.33,4.84-8.06,1.54-12.95a6.63,6.63,0,0,0-2.09-2c-3-1.79-7.52-.88-11.46,2.05a16,16,0,0,0-6.75-5.63,15.78,15.78,0,0,0-12.25-.49,27.32,27.32,0,0,1-6.87,1.89c-12.81,1.72-23-6.6-25.71-9Q47.67,5.92,39.53,0H242.32Z"/><path class="cls-2" d="M12.76,30c.31-1,.6-2,.94-2.95a55.09,55.09,0,0,1,4.08-9.11A42.86,42.86,0,0,1,26.93,6.31a28.57,28.57,0,0,1,6.92-4.39,19.9,19.9,0,0,1,16-.25,49.82,49.82,0,0,1,9.74,5.4c3.46,2.34,6.88,4.75,10.4,7a28.22,28.22,0,0,0,10.53,4.29,45.49,45.49,0,0,0,5.1.33c.32,0,.63,0,1,0a16.27,16.27,0,0,1-3.86,1,23.55,23.55,0,0,1-11.24-1.47,57.34,57.34,0,0,1-9-4.42c-3.53-2.05-7-4.15-10.62-6.12A23.17,23.17,0,0,0,44.31,5,17.13,17.13,0,0,0,35,6.22a30.34,30.34,0,0,0-10,7,65.11,65.11,0,0,0-9.52,12.45c-.83,1.36-1.6,2.76-2.4,4.14a1.6,1.6,0,0,1-.16.23Z"/><path class="cls-3" d="M109.09,65.08c2.57-2.57,3.06-5.59,2.11-8.94a7.07,7.07,0,0,0-1.31-2.8A5.71,5.71,0,0,0,106,51.42c-2-.26-4.06-.41-6.1-.58a26.18,26.18,0,0,1-7.69-1.41,10.58,10.58,0,0,1-6.83-12.35,26.37,26.37,0,0,1,1.07-3.41,3.73,3.73,0,0,1,.3-.6c0,1.5-.05,3,0,4.39A9.6,9.6,0,0,0,88.13,42a8.36,8.36,0,0,0,4.51,3.59A28.9,28.9,0,0,0,99.51,47a32.48,32.48,0,0,1,7,1.29,14,14,0,0,1,3,1.48,7.44,7.44,0,0,1,3.12,5.13,11.07,11.07,0,0,1-.6,6.84.71.71,0,0,0,.17.57A5.26,5.26,0,0,0,115.16,64c1.07.23,2.17.32,3.26.47.15,0,.3,0,.5,0A11.7,11.7,0,0,1,109.09,65.08Z"/><path class="cls-4" d="M120.06,51.39c.47-.16.87-.32,1.29-.43a2.45,2.45,0,0,1,3.05,1.23c.43.75.73,1.57,1.16,2.31a8.9,8.9,0,0,0,1.23,1.64,3.45,3.45,0,0,0,3.1,1.2,7.3,7.3,0,0,1-3.28.9,5.86,5.86,0,0,1-5.34-2.88,5.12,5.12,0,0,1-.47-.77c-1.11-2.44-2.33-4.85-2.35-7.62a13.33,13.33,0,0,1,.8-4.55c.86-2.52,1.81-5,2.68-7.53a19.29,19.29,0,0,0,1.15-5.37,7.76,7.76,0,0,0-3.49-7.27,7.44,7.44,0,0,0-4.82-1.08A17.39,17.39,0,0,0,108,23.3l-.65.35L105,20.76c.29-.17.61-.39,1-.56a20.23,20.23,0,0,1,8.8-2.19,9.82,9.82,0,0,1,5.88,1.72,10.11,10.11,0,0,1,4.41,8,15.51,15.51,0,0,1-1.22,6.59c-1,2.43-2,4.81-3,7.22a14.28,14.28,0,0,0-1.5,6.38A9.33,9.33,0,0,0,120.06,51.39Z"/><path class="cls-3" d="M84.64,20.83a23.5,23.5,0,0,1,7.15-1.89,17.92,17.92,0,0,1,6.8.45,12.66,12.66,0,0,1,9,9c.74,2.37,1.2,4.83,1.86,7.23a29,29,0,0,0,1.35,3.87A8.3,8.3,0,0,0,115.46,44a.65.65,0,0,1,.47.57q1.36,9,2.75,18.08a.16.16,0,0,1-.05.15l-1-3.62c-.82-3-1.65-6-2.47-9-.35-1.25-.67-2.5-1-3.73a.82.82,0,0,0-.44-.47,10,10,0,0,1-5.52-4.85,29.24,29.24,0,0,1-2.47-7.63c-.4-1.7-.75-3.43-1.29-5.09a10.8,10.8,0,0,0-7.55-7.15,24.5,24.5,0,0,0-9.49-.7C86.45,20.59,85.55,20.72,84.64,20.83Z"/><path class="cls-3" d="M45.08,21.83a22.66,22.66,0,0,1,2.08-.92,8.49,8.49,0,0,1,7.43.54,9.79,9.79,0,0,1,3.62,4,25.43,25.43,0,0,1,2,6.41c.73,3.3,1.38,6.62,2.14,9.92a23.11,23.11,0,0,0,2,5.63,4.38,4.38,0,0,0,.5.87,5,5,0,0,1,1,2.61c.72,4.41,1.47,8.81,2.16,13.23,0-.14-.09-.28-.13-.43Q66.15,57.33,64.37,51a3.68,3.68,0,0,0-.63-1.25,19,19,0,0,1-3.17-6.45c-1.46-4.86-2.83-9.74-4.22-14.62a11.88,11.88,0,0,0-1.91-4.09,7.13,7.13,0,0,0-4.51-2.66,13.05,13.05,0,0,0-4.58,0l-.22,0Z"/><path class="cls-3" d="M27.41,19.7c-.28,1.62-.66,3.28-.84,5A11.75,11.75,0,0,0,27.87,32,10.14,10.14,0,0,0,31.7,35.9c1.79,1,3.65,1.9,5.52,2.76A66.86,66.86,0,0,1,45.4,42.6,17.56,17.56,0,0,1,50.23,47a2.39,2.39,0,0,1,.37.77,2.4,2.4,0,0,1-.27-.16A25.65,25.65,0,0,0,42,43.25c-2.5-.86-5-1.67-7.5-2.61a17.4,17.4,0,0,1-6.41-3.92A11.73,11.73,0,0,1,24.82,26a15.4,15.4,0,0,1,2.47-6.13Z"/><path class="cls-3" d="M68.08,66a12.27,12.27,0,0,1-8.8.71c.28-.33.57-.64.82-1a5.41,5.41,0,0,0,.68-4.76,14.82,14.82,0,0,0-3.7-6.55,6.89,6.89,0,0,0-.87-.75,13.52,13.52,0,0,1-4.58-6.47,20.94,20.94,0,0,0-1.42-3.34,12.43,12.43,0,0,0-5.46-4.73L44.54,39s0,0,0,0a8.47,8.47,0,0,1,2.93.57,10.15,10.15,0,0,1,5.94,6.07,13.35,13.35,0,0,0,4,5.74,13.2,13.2,0,0,1,4.17,6.14,9.53,9.53,0,0,1,.56,5.63,1.19,1.19,0,0,0,.63,1.51,8.5,8.5,0,0,0,3.47,1.16C66.82,65.86,67.4,65.91,68.08,66Z"/><path class="cls-3" d="M12.67,36.64a11.91,11.91,0,0,0-7.37-.13c-1.78.43-3.52,1-5.3,1.53.16-.29.33-.63.54-.95A12,12,0,0,1,4.7,33.28,19.72,19.72,0,0,1,11.06,31a1.2,1.2,0,0,1,.72.12c1.78,1,2.26,2.67,1.33,4.72C13,36.1,12.83,36.36,12.67,36.64Z"/><path class="cls-3" d="M63.77,42.22c1,.62,1.85,1.29,2.82,1.78a12.75,12.75,0,0,0,7.84,1.06,24.71,24.71,0,0,1,8-.24,17.93,17.93,0,0,1,2.64.83,5.22,5.22,0,0,1,.85.57c-.86-.14-1.57-.3-2.29-.37a17.82,17.82,0,0,0-6.24.73c-1.7.45-3.38,1-5.1,1.3a12.35,12.35,0,0,1-5.79-.26,2.07,2.07,0,0,1-1.19-.81A10,10,0,0,1,63.77,42.22Z"/><path class="cls-3" d="M32,41.47a7.63,7.63,0,0,1-3.38,6.12,9.27,9.27,0,0,1-4.35,1.48c-.32,0-.37-.15-.45-.37a22.6,22.6,0,0,0-4.09-6.87,21.37,21.37,0,0,0-5.82-4.76L13.7,37l0-.13a17.68,17.68,0,0,1,1.77.46,16.22,16.22,0,0,1,5.1,3.16c1.71,1.53,3.3,3.19,5,4.77a1.38,1.38,0,0,0,.78.34,3.78,3.78,0,0,0,3-1.11c.85-.78,1.58-1.69,2.36-2.55A4,4,0,0,0,32,41.47Z"/><path class="cls-3" d="M90.26,58.52a14.7,14.7,0,0,1-8.09-.38c.91-.85,1.71-1.64,2.56-2.38A3.68,3.68,0,0,0,85.83,54c.59-1.71,1.28-3.39,1.94-5.09.07-.16.16-.3.22-.41l3.41,1.89c-3,.5-4.5,2.57-5.42,5.27-.22.65-.1,1,.51,1.37a11.82,11.82,0,0,0,3.37,1.34Z"/><path class="cls-3" d="M57.93,57.41a12.15,12.15,0,0,1-6.57-.87c.74-.57,1.39-1.09,2.06-1.6a2.91,2.91,0,0,0,1.25-1.64c.33.23.56.47.25.87a1.07,1.07,0,0,0-.1.22c-.5,1-.42,1.37.6,1.91.68.37,1.42.65,2.13,1Z"/><text class="cls-5" transform="translate(70.26 12.48)"><tspan class="cls-6">G</tspan><tspan x="10.42" y="0">ANADERIA R</tspan><tspan class="cls-7" x="88.15" y="0">E</tspan><tspan x="94.18" y="0">GENER</tspan><tspan class="cls-8" x="134.71" y="0">A</tspan><tspan x="143.52" y="0">TI</tspan><tspan class="cls-9" x="152.41" y="0">V</tspan><tspan x="159.82" y="0">A</tspan></text><text class="cls-10" transform="translate(128.54 45.16)">Santo</text><text class="cls-11" transform="translate(130.47 66.06)">Domingo</text></g></g></svg>